<svg width="600" height="600" viewBox="0 0 600 600" fill="none" xmlns="http://www.w3.org/2000/svg">
<path fill-rule="evenodd" clip-rule="evenodd" d="M135 0C60.4416 0 0 60.4416 0 135V465C0 539.558 60.4416 600 135 600H465C539.558 600 600 539.558 600 465V135C600 60.4416 539.558 0 465 0H135ZM179.549 458C232.882 458 281.949 424.4 285.149 365.733C285.149 364.382 285.202 362.925 285.259 361.394C285.38 358.089 285.513 354.445 285.149 350.8C303.282 363.6 323.016 370 343.282 370C420.616 370 470.216 350.267 485.149 307.6L487.816 299.6C501.682 261.2 493.149 242 475.016 228.133C461.149 217.467 448.349 215.333 438.749 215.333C405.42 215.333 376.657 244.842 342.198 280.196C334.198 288.403 325.891 296.925 317.149 305.467C296.349 300.667 288.882 290 282.482 275.6L275.549 260.133H268.616L245.149 306.533L276.082 371.067C261.149 382.8 226.482 396.133 187.549 396.133C140.616 396.133 117.149 376.4 117.149 338C117.149 325.733 119.282 307.067 124.082 288.933L117.149 286.8C109.682 308.667 101.149 341.733 101.149 372.133C101.149 428.133 129.416 458 179.549 458ZM447.282 276.667L479.816 296.933C430.216 306 379.016 307.067 328.882 307.067C366.216 274.533 387.549 261.2 408.882 261.2C424.607 261.2 435.181 268.412 446.678 276.255C446.879 276.392 447.081 276.529 447.282 276.667ZM324.616 229.733L351.282 203.6C355.549 199.333 355.549 194.533 351.282 190.8L324.616 163.6L292.082 197.2L324.616 229.733Z" fill="white"/>
</svg>
